<svg width="15" height="16" viewBox="0 0 15 16" fill="none" xmlns="http://www.w3.org/2000/svg">
<path d="M11.5429 7.57895C11.5429 10.1053 9.36571 11.8737 7 11.8737C4.63429 11.8737 2.45714 10.1053 2.45714 7.57895H1C1 10.4505 3.33143 12.8253 6.14286 13.2379V16H7.85714V13.2379C10.6686 12.8253 13 10.4505 13 7.57895M5.97143 2.44211C5.97143 1.88632 6.43429 1.43158 7 1.43158C7.56571 1.43158 8.02857 1.88632 8.02857 2.44211L8.02 7.66316C8.02 8.21895 7.56571 8.67368 7 8.67368C6.43429 8.67368 5.97143 8.21895 5.97143 7.66316M7 10.1053C7.68199 10.1053 8.33604 9.8391 8.81827 9.36532C9.30051 8.89155 9.57143 8.24897 9.57143 7.57895V2.52632C9.57143 1.8563 9.30051 1.21372 8.81827 0.739941C8.33604 0.266165 7.68199 0 7 0C6.31801 0 5.66396 0.266165 5.18173 0.739941C4.69949 1.21372 4.42857 1.8563 4.42857 2.52632V7.57895C4.42857 8.24897 4.69949 8.89155 5.18173 9.36532C5.66396 9.8391 6.31801 10.1053 7 10.1053Z" fill="white"/>
<rect x="13.4853" y="15.8995" width="19.0711" height="2" transform="rotate(-135 13.4853 15.8995)" fill="#EB584D"/>
</svg>
