<svg width="36" height="36" viewBox="0 0 36 36" fill="none" xmlns="http://www.w3.org/2000/svg">
<path d="M18 36C27.9411 36 36 27.9411 36 18C36 8.05887 27.9411 0 18 0C8.05887 0 0 8.05887 0 18C0 27.9411 8.05887 36 18 36Z" fill="#FFCC4D"/>
<path d="M27.335 23.629C27.157 23.468 26.891 23.458 26.7 23.6C26.661 23.629 22.778 26.5 18 26.5C13.234 26.5 9.338 23.629 9.3 23.6C9.109 23.458 8.843 23.47 8.665 23.629C8.488 23.789 8.448 24.053 8.571 24.257C8.7 24.472 11.788 29.5 18 29.5C24.212 29.5 27.301 24.472 27.429 24.257C27.552 24.052 27.513 23.789 27.335 23.629V23.629Z" fill="#664500"/>
<path d="M18 26.591C17.852 26.591 17.709 26.58 17.562 26.575V31.091H18.437V26.574C18.292 26.579 18.148 26.591 18 26.591Z" fill="#65471B"/>
<path d="M22 26C22.016 25.996 20.55 26.378 19.554 26.486C19.188 26.528 18.817 26.562 18.437 26.575V31.092H20C21.1 31.092 22 30.192 22 29.092V26ZM14 26C13.984 25.996 15.45 26.378 16.446 26.486C16.812 26.528 17.183 26.562 17.563 26.575V31.092H16C14.9 31.092 14 30.192 14 29.092V26Z" fill="white"/>
<path d="M27.335 23.629C27.157 23.468 26.891 23.458 26.7 23.6C26.67 23.622 24.441 25.268 21.289 26.07C20.846 26.183 19.425 26.5 18.003 26.501C16.579 26.501 15.154 26.183 14.711 26.07C11.559 25.268 9.33 23.622 9.3 23.6C9.11 23.458 8.843 23.468 8.665 23.629C8.487 23.789 8.448 24.052 8.571 24.257C8.668 24.419 10.456 27.324 14 28.738V26.909C13.984 26.905 15.45 27.287 16.446 27.395C16.812 27.437 17.183 27.471 17.563 27.484C17.709 27.489 17.852 27.5 18 27.5C18.148 27.5 18.291 27.489 18.438 27.484C18.818 27.471 19.189 27.438 19.555 27.395C20.551 27.287 22.017 26.905 22.001 26.909V28.738C25.545 27.324 27.333 24.419 27.43 24.257C27.552 24.052 27.513 23.789 27.335 23.629V23.629ZM26.624 14.024C26.624 15.738 25.686 17.128 24.528 17.128C23.371 17.128 22.432 15.738 22.432 14.024C22.432 12.31 23.37 10.92 24.528 10.92C25.686 10.92 26.624 12.31 26.624 14.024ZM9.457 14.024C9.457 15.738 10.395 17.128 11.553 17.128C12.71 17.128 13.649 15.738 13.649 14.024C13.649 12.31 12.711 10.92 11.553 10.92C10.395 10.92 9.457 12.31 9.457 14.024Z" fill="#65471B"/>
<path d="M34.808 9.627C34.637 9.461 33.541 9.901 32.432 9.336C30.144 8.17 24.362 7.045 20.598 9.712C20.195 9.997 18.511 10.045 18.04 10.025C17.569 10.046 15.885 9.998 15.482 9.712C11.719 7.045 5.937 8.17 3.649 9.336C2.54 9.901 1.444 9.461 1.273 9.627C1.026 9.866 1.026 10.823 1.274 11.063C1.52 11.302 2.751 11.578 2.996 12.295C3.243 13.013 3.245 17.253 5.209 18.719C7.048 20.091 11.338 20.504 14.057 18.957C16.429 17.608 16.346 14.768 16.781 13.076C16.936 12.473 17.373 12.169 18.041 12.169C18.709 12.169 19.146 12.473 19.301 13.076C19.736 14.767 19.652 17.608 22.025 18.957C24.744 20.503 29.034 20.09 30.872 18.719C32.837 17.254 32.839 13.013 33.085 12.295C33.33 11.578 34.561 11.301 34.807 11.063C35.055 10.823 35.056 9.866 34.808 9.627V9.627ZM14.614 13.277C14.537 14.382 14.34 16.504 13.017 17.257C12.206 17.719 11.149 18 10.043 18H10.042C8.817 18 7.119 17.653 6.455 17.158C5.625 16.539 5.309 13.991 5.19 13.038C5.114 12.431 4.91 10.948 5.578 10.72C6.638 10.359 8.117 10.077 9.63 10.077C10.323 10.077 12.651 10.12 13.785 10.818C14.79 11.435 14.657 12.669 14.614 13.277V13.277ZM30.892 13.024C30.773 13.978 30.457 16.539 29.627 17.158C28.963 17.653 27.265 18 26.04 18H26.039C24.932 18 23.876 17.719 23.064 17.257C21.741 16.505 21.544 14.396 21.467 13.291C21.425 12.683 21.291 11.44 22.296 10.823C23.431 10.125 25.758 10.077 26.451 10.077C27.964 10.077 29.442 10.354 30.503 10.715C31.171 10.943 30.968 12.417 30.892 13.024V13.024Z" fill="#292F33"/>
</svg>
