<svg width="56" height="56" viewBox="0 0 56 56" fill="none" xmlns="http://www.w3.org/2000/svg">
<circle cx="28" cy="28" r="26" stroke="#4D4848" stroke-width="4"/>
<mask id="path-2-inside-1_40_35" fill="white">
<path d="M52.5106 41.5362C49.7259 46.5787 45.4536 50.6396 40.2764 53.1652C35.0993 55.6908 29.2691 56.5582 23.581 55.6491C17.8928 54.74 12.6234 52.0986 8.49137 48.0852C4.35931 44.0717 1.56565 38.8815 0.491299 33.2222C-0.58305 27.5629 0.114206 21.71 2.488 16.4615C4.86178 11.213 8.79657 6.8243 13.7559 3.89389C18.7151 0.963486 24.4575 -0.36605 30.2001 0.08657C35.9426 0.53919 41.4059 2.75194 45.8448 6.4231L43.3461 9.44441C39.5287 6.2873 34.8305 4.38439 29.892 3.99515C24.9536 3.60591 20.0153 4.74928 15.7504 7.26935C11.4855 9.78943 8.10172 13.5636 6.06032 18.0772C4.01892 22.5907 3.4193 27.6241 4.34321 32.491C5.26712 37.3578 7.6696 41.8213 11.2231 45.2727C14.7765 48.7242 19.3081 50.9957 24.1997 51.7775C29.0914 52.5593 34.1052 51.8134 38.5574 49.6415C43.0097 47.4695 46.6837 43.9772 49.0785 39.6408L52.5106 41.5362Z"/>
</mask>
<path d="M52.5106 41.5362C49.7259 46.5787 45.4536 50.6396 40.2764 53.1652C35.0993 55.6908 29.2691 56.5582 23.581 55.6491C17.8928 54.74 12.6234 52.0986 8.49137 48.0852C4.35931 44.0717 1.56565 38.8815 0.491299 33.2222C-0.58305 27.5629 0.114206 21.71 2.488 16.4615C4.86178 11.213 8.79657 6.8243 13.7559 3.89389C18.7151 0.963486 24.4575 -0.36605 30.2001 0.08657C35.9426 0.53919 41.4059 2.75194 45.8448 6.4231L43.3461 9.44441C39.5287 6.2873 34.8305 4.38439 29.892 3.99515C24.9536 3.60591 20.0153 4.74928 15.7504 7.26935C11.4855 9.78943 8.10172 13.5636 6.06032 18.0772C4.01892 22.5907 3.4193 27.6241 4.34321 32.491C5.26712 37.3578 7.6696 41.8213 11.2231 45.2727C14.7765 48.7242 19.3081 50.9957 24.1997 51.7775C29.0914 52.5593 34.1052 51.8134 38.5574 49.6415C43.0097 47.4695 46.6837 43.9772 49.0785 39.6408L52.5106 41.5362Z" stroke="#1B279B" stroke-width="8" mask="url(#path-2-inside-1_40_35)"/>
</svg>
