<svg width="58" height="58" viewBox="0 0 58 58" fill="none" xmlns="http://www.w3.org/2000/svg">
<path d="M6.3191 58H4.9887e-05V26.5027C-0.00574436 24.3511 0.493278 22.2279 1.45724 20.3029C2.76602 17.423 4.87867 14.9797 7.54274 13.265C10.2068 11.5503 13.3096 10.6367 16.4805 10.6333H33.0285V0H38.1618L58 19.7816L38.0914 39.6333H33.0285V29H22.2662C20.0151 29.0055 17.8271 29.7427 16.0341 31.1C14.241 32.4573 12.9407 34.3605 12.3303 36.5211L6.3191 58ZM16.4805 14.5C14.05 14.5026 11.6719 15.2045 9.63156 16.5214C7.59121 17.8383 5.9753 19.7144 4.97775 21.9244L4.94237 21.9986C4.23791 23.3958 3.87322 24.9388 3.87781 26.5027V52.3381L8.59534 35.4819C9.43511 32.509 11.2242 29.8902 13.6913 28.0227C16.1583 26.1552 19.1688 25.1408 22.2662 25.1333H36.9062V35.3468L52.5161 19.7816L36.9062 4.21636V14.5H16.4805Z" fill="black"/>
</svg>
