<svg width="12" height="16" viewBox="0 0 12 16" fill="none" xmlns="http://www.w3.org/2000/svg">
<path d="M10.5429 7.57895C10.5429 10.1053 8.36571 11.8737 6 11.8737C3.63429 11.8737 1.45714 10.1053 1.45714 7.57895H0C0 10.4505 2.33143 12.8253 5.14286 13.2379V16H6.85714V13.2379C9.66857 12.8253 12 10.4505 12 7.57895M4.97143 2.44211C4.97143 1.88632 5.43429 1.43158 6 1.43158C6.56571 1.43158 7.02857 1.88632 7.02857 2.44211L7.02 7.66316C7.02 8.21895 6.56571 8.67368 6 8.67368C5.43429 8.67368 4.97143 8.21895 4.97143 7.66316M6 10.1053C6.68199 10.1053 7.33604 9.8391 7.81827 9.36532C8.30051 8.89155 8.57143 8.24897 8.57143 7.57895V2.52632C8.57143 1.8563 8.30051 1.21372 7.81827 0.739941C7.33604 0.266165 6.68199 0 6 0C5.31801 0 4.66396 0.266165 4.18173 0.739941C3.69949 1.21372 3.42857 1.8563 3.42857 2.52632V7.57895C3.42857 8.24897 3.69949 8.89155 4.18173 9.36532C4.66396 9.8391 5.31801 10.1053 6 10.1053Z" fill="white"/>
</svg>
