<svg width="127" height="127" viewBox="0 0 127 127" fill="none" xmlns="http://www.w3.org/2000/svg">
<path d="M122.158 101.109L100.793 79.7434L84.3588 72.9538C89.8308 65.1722 92.7624 55.8888 92.7518 46.3759C92.7518 20.8041 71.9477 0 46.3759 0C20.8041 0 0 20.8041 0 46.3759C0 71.9477 20.8041 92.7518 46.3759 92.7518C55.9716 92.7627 65.3317 89.7805 73.1524 84.2205L79.9244 100.61L101.289 121.977C102.659 123.347 104.286 124.434 106.076 125.176C107.867 125.917 109.785 126.299 111.723 126.299C113.661 126.299 115.58 125.918 117.37 125.176C119.161 124.435 120.787 123.348 122.158 121.977C123.528 120.607 124.615 118.981 125.357 117.19C126.098 115.4 126.48 113.481 126.48 111.543C126.48 109.606 126.098 107.687 125.357 105.896C124.615 104.106 123.529 102.479 122.158 101.109V101.109ZM8.43198 46.3759C8.43198 25.454 25.454 8.43198 46.3759 8.43198C67.2977 8.43198 84.3198 25.454 84.3198 46.3759C84.3198 67.2977 67.2977 84.3198 46.3759 84.3198C25.454 84.3198 8.43198 67.2977 8.43198 46.3759ZM116.196 116.015C115.009 117.199 113.4 117.864 111.724 117.864C110.047 117.864 108.439 117.199 107.252 116.015L87.0752 95.8379L80.7792 80.5984L96.0192 86.8945L116.196 107.071C117.38 108.258 118.045 109.866 118.045 111.543C118.045 113.22 117.38 114.828 116.196 116.015V116.015Z" fill="white"/>
</svg>
