<svg width="27" height="22" viewBox="0 0 27 22" fill="none" xmlns="http://www.w3.org/2000/svg">
<path d="M27 18.6154C27 20.4845 25.6567 22 24 22H3C1.34325 22 0 20.4845 0 18.6154V3.38462C0 1.51546 1.34325 0 3 0H24C25.6567 0 27 1.51546 27 3.38462V18.6154Z" fill="#CCD6DD"/>
<path d="M8.96252 10.692L0.47777 20.2645C0.45752 20.2882 0.45002 20.3178 0.43277 20.3415C0.68777 20.8238 1.04327 21.2241 1.47077 21.5126C1.49252 21.4931 1.51802 21.4847 1.53827 21.4618L10.0238 11.8884C10.3163 11.5576 10.3163 11.0228 10.0238 10.692C9.72977 10.3611 9.25577 10.3611 8.96252 10.692ZM26.5673 20.3415C26.5515 20.3178 26.5425 20.2882 26.5223 20.2654L18.0383 10.692C17.7443 10.3611 17.2703 10.3611 16.977 10.692C16.6838 11.0237 16.6838 11.5584 16.977 11.8884L25.4618 21.4618C25.4813 21.4838 25.5083 21.4931 25.5293 21.5126C25.9575 21.2249 26.3123 20.8238 26.5673 20.3415Z" fill="#99AAB5"/>
<path d="M24 0H3C1.34325 0 0 1.51546 0 3.38462V4.25615L10.896 16.522C12.3165 18.1238 14.637 18.1238 16.059 16.522L27 4.23838V3.38462C27 1.51546 25.6567 0 24 0Z" fill="#99AAB5"/>
</svg>
