<svg width="37" height="25" viewBox="0 0 37 25" fill="none" xmlns="http://www.w3.org/2000/svg">
<path d="M0.989746 20.6612C0.989746 21.611 1.40857 22.5219 2.15407 23.1936C2.89957 23.8652 3.91069 24.2425 4.96499 24.2425H32.7917C33.846 24.2425 34.8571 23.8652 35.6026 23.1936C36.3481 22.5219 36.767 21.611 36.767 20.6612V16.1844H0.989746V20.6612Z" fill="#138808"/>
<path d="M36.767 9.02171V4.54499C36.767 3.59516 36.3481 2.68422 35.6026 2.01258C34.8571 1.34094 33.846 0.963623 32.7917 0.963623H4.96499C3.91069 0.963623 2.89957 1.34094 2.15407 2.01258C1.40857 2.68422 0.989746 3.59516 0.989746 4.54499L0.989746 9.02171H36.767Z" fill="#FF9933"/>
<path d="M0.989746 8.7236H36.767V16.4835H0.989746V8.7236Z" fill="#F7F7F7"/>
<path d="M18.8783 16.1845C21.0738 16.1845 22.8536 14.581 22.8536 12.6031C22.8536 10.6252 21.0738 9.02173 18.8783 9.02173C16.6829 9.02173 14.9031 10.6252 14.9031 12.6031C14.9031 14.581 16.6829 16.1845 18.8783 16.1845Z" fill="#000080"/>
<path d="M18.8784 15.6249C20.7308 15.6249 22.2325 14.272 22.2325 12.6031C22.2325 10.9342 20.7308 9.58133 18.8784 9.58133C17.026 9.58133 15.5243 10.9342 15.5243 12.6031C15.5243 14.272 17.026 15.6249 18.8784 15.6249Z" fill="#F7F7F7"/>
<path d="M18.9777 11.4839L18.8783 12.0659L18.779 11.4839L18.8783 9.73801L18.9777 11.4839ZM18.0555 9.8356L18.4609 11.5448L18.7243 12.0838L18.6528 11.4991L18.0555 9.8356ZM17.2882 10.1221L18.1708 11.6782L18.5802 12.1375L18.3437 11.5887L17.2882 10.1221ZM16.6294 10.5769L17.9293 11.8752L18.457 12.2235L18.0704 11.7481L16.6294 10.5769ZM16.1245 11.1706L17.7524 12.1214L18.3616 12.3345L17.8517 11.9656L16.1245 11.1706ZM15.8065 11.8618L17.653 12.3999L18.3019 12.4643L17.7037 12.2271L15.8065 11.8618ZM15.6982 12.6031L17.6361 12.6926L18.2821 12.6031L17.6361 12.5136L15.6982 12.6031ZM15.8065 13.3444L17.7037 12.9791L18.3019 12.7419L17.653 12.8063L15.8065 13.3444ZM16.1245 14.0357L17.8517 13.2406L18.3616 12.8717L17.7524 13.0848L16.1245 14.0357ZM16.6294 14.6293L18.0704 13.4582L18.457 12.9827L17.9293 13.331L16.6294 14.6293ZM17.2882 15.0841L18.3437 13.6175L18.5802 13.0687L18.1708 13.528L17.2882 15.0841ZM18.0555 15.3706L18.6528 13.7071L18.7243 13.1224L18.4609 13.6614L18.0555 15.3706ZM18.8783 15.4682L18.9777 13.7223L18.8783 13.1403L18.779 13.7223L18.8783 15.4682ZM19.7012 15.3706L19.2957 13.6614L19.0324 13.1224L19.1039 13.7071L19.7012 15.3706ZM20.4684 15.0841L19.5859 13.528L19.1765 13.0687L19.413 13.6175L20.4684 15.0841ZM21.1273 14.6293L19.8274 13.331L19.2997 12.9827L19.6863 13.4582L21.1273 14.6293ZM21.6322 14.0357L20.0043 13.0848L19.3951 12.8717L19.905 13.2406L21.6322 14.0357ZM21.9502 13.3444L20.1037 12.8063L19.4548 12.7419L20.053 12.9791L21.9502 13.3444ZM22.0585 12.6031L20.1206 12.5136L19.4746 12.6031L20.1206 12.6926L22.0585 12.6031ZM21.9502 11.8618L20.053 12.2271L19.4548 12.4643L20.1037 12.3999L21.9502 11.8618ZM21.6322 11.1706L19.905 11.9656L19.3951 12.3345L20.0043 12.1214L21.6322 11.1706ZM21.1273 10.5769L19.6863 11.7481L19.2997 12.2235L19.8274 11.8752L21.1273 10.5769ZM20.4684 10.1221L19.413 11.5887L19.1765 12.1375L19.5859 11.6782L20.4684 10.1221ZM19.7012 9.8356L19.1039 11.4991L19.0324 12.0838L19.2957 11.5448L19.7012 9.8356Z" fill="#6666B3"/>
<path d="M18.441 9.79079C18.5508 9.79079 18.6398 9.71061 18.6398 9.61172C18.6398 9.51282 18.5508 9.43265 18.441 9.43265C18.3313 9.43265 18.2423 9.51282 18.2423 9.61172C18.2423 9.71061 18.3313 9.79079 18.441 9.79079Z" fill="#000080"/>
<path d="M17.5963 9.99495C17.7061 9.99495 17.7951 9.91478 17.7951 9.81588C17.7951 9.71698 17.7061 9.63681 17.5963 9.63681C17.4866 9.63681 17.3976 9.71698 17.3976 9.81588C17.3976 9.91478 17.4866 9.99495 17.5963 9.99495Z" fill="#000080"/>
<path d="M16.839 10.388C16.9488 10.388 17.0378 10.3078 17.0378 10.2089C17.0378 10.11 16.9488 10.0299 16.839 10.0299C16.7292 10.0299 16.6403 10.11 16.6403 10.2089C16.6403 10.3078 16.7292 10.388 16.839 10.388Z" fill="#000080"/>
<path d="M16.2209 10.945C16.3307 10.945 16.4196 10.8648 16.4196 10.7659C16.4196 10.667 16.3307 10.5868 16.2209 10.5868C16.1111 10.5868 16.0221 10.667 16.0221 10.7659C16.0221 10.8648 16.1111 10.945 16.2209 10.945Z" fill="#000080"/>
<path d="M15.7846 11.6272C15.8944 11.6272 15.9834 11.547 15.9834 11.4481C15.9834 11.3492 15.8944 11.269 15.7846 11.269C15.6748 11.269 15.5858 11.3492 15.5858 11.4481C15.5858 11.547 15.6748 11.6272 15.7846 11.6272Z" fill="#000080"/>
<path d="M15.558 12.3882C15.6678 12.3882 15.7568 12.308 15.7568 12.2091C15.7568 12.1102 15.6678 12.0301 15.558 12.0301C15.4483 12.0301 15.3593 12.1102 15.3593 12.2091C15.3593 12.308 15.4483 12.3882 15.558 12.3882Z" fill="#000080"/>
<path d="M15.558 13.1761C15.6678 13.1761 15.7568 13.096 15.7568 12.9971C15.7568 12.8982 15.6678 12.818 15.558 12.818C15.4483 12.818 15.3593 12.8982 15.3593 12.9971C15.3593 13.096 15.4483 13.1761 15.558 13.1761Z" fill="#000080"/>
<path d="M15.7846 13.9371C15.8944 13.9371 15.9834 13.8569 15.9834 13.758C15.9834 13.6592 15.8944 13.579 15.7846 13.579C15.6748 13.579 15.5858 13.6592 15.5858 13.758C15.5858 13.8569 15.6748 13.9371 15.7846 13.9371Z" fill="#000080"/>
<path d="M16.2209 14.6194C16.3307 14.6194 16.4196 14.5392 16.4196 14.4403C16.4196 14.3414 16.3307 14.2613 16.2209 14.2613C16.1111 14.2613 16.0221 14.3414 16.0221 14.4403C16.0221 14.5392 16.1111 14.6194 16.2209 14.6194Z" fill="#000080"/>
<path d="M16.839 15.1763C16.9488 15.1763 17.0378 15.0961 17.0378 14.9972C17.0378 14.8983 16.9488 14.8182 16.839 14.8182C16.7292 14.8182 16.6403 14.8983 16.6403 14.9972C16.6403 15.0961 16.7292 15.1763 16.839 15.1763Z" fill="#000080"/>
<path d="M17.5963 15.5694C17.7061 15.5694 17.7951 15.4892 17.7951 15.3903C17.7951 15.2914 17.7061 15.2112 17.5963 15.2112C17.4866 15.2112 17.3976 15.2914 17.3976 15.3903C17.3976 15.4892 17.4866 15.5694 17.5963 15.5694Z" fill="#000080"/>
<path d="M18.441 15.7735C18.5508 15.7735 18.6398 15.6933 18.6398 15.5944C18.6398 15.4955 18.5508 15.4153 18.441 15.4153C18.3313 15.4153 18.2423 15.4955 18.2423 15.5944C18.2423 15.6933 18.3313 15.7735 18.441 15.7735Z" fill="#000080"/>
<path d="M19.3156 15.7735C19.4254 15.7735 19.5144 15.6933 19.5144 15.5944C19.5144 15.4955 19.4254 15.4153 19.3156 15.4153C19.2058 15.4153 19.1169 15.4955 19.1169 15.5944C19.1169 15.6933 19.2058 15.7735 19.3156 15.7735Z" fill="#000080"/>
<path d="M20.1603 15.5694C20.2701 15.5694 20.3591 15.4892 20.3591 15.3903C20.3591 15.2914 20.2701 15.2112 20.1603 15.2112C20.0506 15.2112 19.9616 15.2914 19.9616 15.3903C19.9616 15.4892 20.0506 15.5694 20.1603 15.5694Z" fill="#000080"/>
<path d="M20.9177 15.1763C21.0274 15.1763 21.1164 15.0961 21.1164 14.9972C21.1164 14.8983 21.0274 14.8182 20.9177 14.8182C20.8079 14.8182 20.7189 14.8983 20.7189 14.9972C20.7189 15.0961 20.8079 15.1763 20.9177 15.1763Z" fill="#000080"/>
<path d="M21.5358 14.6194C21.6456 14.6194 21.7346 14.5392 21.7346 14.4403C21.7346 14.3414 21.6456 14.2613 21.5358 14.2613C21.4261 14.2613 21.3371 14.3414 21.3371 14.4403C21.3371 14.5392 21.4261 14.6194 21.5358 14.6194Z" fill="#000080"/>
<path d="M21.972 13.9371C22.0818 13.9371 22.1708 13.8569 22.1708 13.758C22.1708 13.6592 22.0818 13.579 21.972 13.579C21.8623 13.579 21.7733 13.6592 21.7733 13.758C21.7733 13.8569 21.8623 13.9371 21.972 13.9371Z" fill="#000080"/>
<path d="M22.1987 13.1761C22.3084 13.1761 22.3974 13.096 22.3974 12.9971C22.3974 12.8982 22.3084 12.818 22.1987 12.818C22.0889 12.818 21.9999 12.8982 21.9999 12.9971C21.9999 13.096 22.0889 13.1761 22.1987 13.1761Z" fill="#000080"/>
<path d="M22.1987 12.3882C22.3084 12.3882 22.3974 12.308 22.3974 12.2091C22.3974 12.1102 22.3084 12.0301 22.1987 12.0301C22.0889 12.0301 21.9999 12.1102 21.9999 12.2091C21.9999 12.308 22.0889 12.3882 22.1987 12.3882Z" fill="#000080"/>
<path d="M21.972 11.6272C22.0818 11.6272 22.1708 11.547 22.1708 11.4481C22.1708 11.3492 22.0818 11.269 21.972 11.269C21.8623 11.269 21.7733 11.3492 21.7733 11.4481C21.7733 11.547 21.8623 11.6272 21.972 11.6272Z" fill="#000080"/>
<path d="M21.5358 10.945C21.6456 10.945 21.7346 10.8648 21.7346 10.7659C21.7346 10.667 21.6456 10.5868 21.5358 10.5868C21.4261 10.5868 21.3371 10.667 21.3371 10.7659C21.3371 10.8648 21.4261 10.945 21.5358 10.945Z" fill="#000080"/>
<path d="M20.9177 10.388C21.0274 10.388 21.1164 10.3078 21.1164 10.2089C21.1164 10.11 21.0274 10.0299 20.9177 10.0299C20.8079 10.0299 20.7189 10.11 20.7189 10.2089C20.7189 10.3078 20.8079 10.388 20.9177 10.388Z" fill="#000080"/>
<path d="M20.1603 9.99495C20.2701 9.99495 20.3591 9.91478 20.3591 9.81588C20.3591 9.71698 20.2701 9.63681 20.1603 9.63681C20.0506 9.63681 19.9616 9.71698 19.9616 9.81588C19.9616 9.91478 20.0506 9.99495 20.1603 9.99495Z" fill="#000080"/>
<path d="M19.3156 9.79079C19.4254 9.79079 19.5144 9.71061 19.5144 9.61172C19.5144 9.51282 19.4254 9.43265 19.3156 9.43265C19.2058 9.43265 19.1169 9.51282 19.1169 9.61172C19.1169 9.71061 19.2058 9.79079 19.3156 9.79079Z" fill="#000080"/>
<path d="M18.8783 13.4089C19.3723 13.4089 19.7727 13.0481 19.7727 12.603C19.7727 12.158 19.3723 11.7972 18.8783 11.7972C18.3843 11.7972 17.9839 12.158 17.9839 12.603C17.9839 13.0481 18.3843 13.4089 18.8783 13.4089Z" fill="#000080"/>
</svg>
